<svg xmlns="http://www.w3.org/2000/svg" version="1.1" xmlns:xlink="http://www.w3.org/1999/xlink" xmlns:svgjs="http://svgjs.dev/svgjs" viewBox="0 0 5.398655704786958 4.276213691110422"><g transform="matrix(1,0,0,1,1.6483533268548702,1.7751855702257822)"><g><path d=" M -0.5741128227701255 0.4311475343578858 L -1.185038276380066 0.089431145913479 L -1.0727600344626178 -0.11130150312978704 Q -1.0322422341184954 -0.18373980691496572 -0.9754308693708846 -0.23102319549397876 Q -0.918619504623274 -0.2783065840729917 -0.8538723691649022 -0.2988080096316019 Q -0.7891252337065302 -0.31930943519021215 -0.7198446198304482 -0.3120674367813998 Q -0.6505640059543663 -0.30482543837258735 -0.5859804580013154 -0.2687011344513215 Q -0.518778658104222 -0.23111233172243673 -0.4763989799796854 -0.174752213890226 Q -0.4340193018551489 -0.11839209605801515 -0.41716425172419314 -0.052247124328616446 Q -0.40030920159323735 0.01389784740078237 -0.40983665851248363 0.0841917131690833 Q -0.4193641154317299 0.15448557893738418 -0.455976585622202 0.21994187753844924 L -0.5741128227701255 0.4311475343578858 M -0.5680907207849775 0.3302479095435165 L -0.514392431172285 0.23424533826195443 Q -0.4743627970973687 0.16267978512478998 -0.4702938794383973 0.09907205046080036 Q -0.46622496177942585 0.03546431579681075 -0.4865638383314177 -0.01830677402479175 Q -0.5069027148834095 -0.07207786384639414 -0.5461687986236765 -0.1135196865343786 Q -0.5854348823639435 -0.15496150922236307 -0.6325634173567103 -0.1813224877595031 Q -0.6849284562375623 -0.21061246391188082 -0.7431294425864763 -0.22025067889254613 Q -0.8013304289353904 -0.22988889387321154 -0.8572167328404362 -0.21703506036593234 Q -0.9131030367454821 -0.20418122685865314 -0.962747280290596 -0.1666385966520012 Q -1.0123915238357097 -0.12909596644534915 -1.0485158277569755 -0.06451241849229827 L -1.1022141173696682 0.0314901527892637 L -0.5680907207849775 0.3302479095435165 M -0.552786732908235 -0.7733852079043331 L -0.13526246962572203 -0.2115369280543412 L -0.06222219324522307 -0.26581508228106787 L -0.24652933232278954 -0.51383096581485 L -0.2112131547322186 -0.5400753480783222 Q -0.18873922353821893 -0.5567763186096228 -0.17090805997587977 -0.5637976864260179 Q -0.15307689641354058 -0.5708190542424129 -0.13387973161762629 -0.5701343179438955 Q -0.11468256682171193 -0.569449581645378 -0.09291544019254386 -0.5619534360818392 Q -0.07114831356337584 -0.5544572905183004 -0.03999981583593265 -0.5427196975229939 L 0.09319497403864357 -0.4959313661756646 Q 0.11895323440042599 -0.48641758547950437 0.1419243216292726 -0.47981613476585666 Q 0.1648954088581192 -0.47321468405220896 0.18659254930349606 -0.47251891362053444 Q 0.2082896897488729 -0.4718231431888599 0.2303181642103514 -0.4782259795056801 Q 0.2523466386718298 -0.48462881582250017 0.276425850665401 -0.5025227128203222 Q 0.2940839394606864 -0.5156449039520583 0.30412797859116475 -0.52560067001728 Q 0.3141720177216431 -0.5355564360825016 0.32063727745255716 -0.5503280445464375 L 0.29856813782191 -0.5800257393385084 Q 0.29515139905624227 -0.5762407827724192 0.2914364286739441 -0.5728571464062227 Q 0.2877214582916459 -0.5694735100400261 0.2837082562927174 -0.5664911938737224 Q 0.26685280789721766 -0.553965465975247 0.25043178210108197 -0.5492378966417895 Q 0.23401075630494633 -0.544510327308332 0.21591446352544807 -0.5453902066402174 Q 0.19781817074594982 -0.5462700859721026 0.1775422021999336 -0.5517596305361772 Q 0.1572662336539174 -0.5572491751002517 0.13350354015844218 -0.5657541382301012 Q 0.06340838613853794 -0.5896637468200784 0.02317674892945004 -0.6052414670472597 Q -0.017054888279637886 -0.620819187274441 -0.039819798341959506 -0.6288197416211352 Q -0.06258470840428118 -0.6368202959678293 -0.07477532090180622 -0.6389741220831844 Q -0.08696593339933131 -0.6411279481985395 -0.10017639759632416 -0.6387862317981249 L -0.11118511776048484 -0.636834801464446 L -0.11357097069352778 -0.640045363063589 Q -0.07683362120359624 -0.6710835194594611 -0.0598788656096827 -0.7061090282030991 Q -0.042924110015769124 -0.741134536946737 -0.041370528518523436 -0.7759280188726871 Q -0.03981694702127775 -0.8107215007986373 -0.05057913487113386 -0.8419693057244941 Q -0.06134132272098991 -0.8732171106503511 -0.07923521971881192 -0.8972963226439222 Q -0.09533972701685167 -0.9189676134381362 -0.122854274678945 -0.938389242282041 Q -0.15036882234103832 -0.9578108711259458 -0.18723889145024386 -0.9646736696719039 Q -0.2241089605594495 -0.971536468217862 -0.27045970796534397 -0.9601409333504253 Q -0.3168104553712384 -0.9487453984829886 -0.37058736215688054 -0.9087823618545194 L -0.552786732908235 -0.7733852079043331 M -0.4535020742642638 -0.7923471845404888 L -0.37243539388590785 -0.8525899710998228 Q -0.34193505869405116 -0.8752555739637307 -0.3108934309347192 -0.8846186581805403 Q -0.27985180317538716 -0.89398174239735 -0.2505626813315174 -0.8914524457332649 Q -0.22127355948764765 -0.8889231490691798 -0.19593868759207228 -0.8741111854574644 Q -0.17060381569649696 -0.8592992218457487 -0.15151699223215348 -0.8336147290526063 Q -0.13541248493411367 -0.8119434382583923 -0.12743747021719343 -0.7836079633150478 Q -0.11946245550027312 -0.7552724883717032 -0.12289748114740642 -0.7246873514780496 Q -0.1263325067945397 -0.6941022145843958 -0.14246255372235334 -0.6646731203729437 Q -0.15859260065016703 -0.6352440261614914 -0.19069821664159511 -0.6113854968310621 L -0.2733701778195225 -0.5499497838052066 L -0.4535020742642638 -0.7923471845404888 M 0.16221370534442814 -1.2193639962737828 L 0.5057539798394506 -0.8591292397609158 L 0.572341884093649 -0.6026315769898221 L 0.6604222135735339 -0.6254976120356034 L 0.5915728333257968 -0.8907065161838286 L 0.7226369006065536 -1.3648522851914464 L 0.6703694523437647 -1.3512834292302134 L 0.5559560064448407 -0.9403496591436775 L 0.55208434361056 -0.9393445587021048 L 0.26190902332715515 -1.2452453326442825 L 0.16221370534442814 -1.2193639962737828 M 1.6824466826210493 -1.2928281375675974 L 1.450319292105808 -0.6324366820106797 L 1.5361701813282074 -0.6022601212436983 L 1.6515706554700702 -0.9305690162919946 L 1.9440297286452766 -0.8277697433495306 L 1.9592838143077067 -0.8711668961432708 L 1.6668247411325003 -0.9739661690857349 L 1.7500589911601083 -1.210763676721144 L 2.0906322989544615 -1.0910522653268553 L 2.108870879637802 -1.1429401654063274 L 1.6824466826210493 -1.2928281375675974 M 2.48195244371164 -0.9112684724189013 L 2.0244223996327024 -0.38148902890950503 L 2.0932937272889243 -0.32201012317924316 L 2.295260561032341 -0.5558699060998196 L 2.3285609831957887 -0.5271108747577149 Q 2.3497521609361645 -0.5088096729945575 2.3604854030569205 -0.4929336686616898 Q 2.3712186451776764 -0.47705766432882224 2.3747276896400957 -0.45817151578125537 Q 2.3782367341025155 -0.4392853672336885 2.3756568225712615 -0.416408652948396 Q 2.373076911040008 -0.39353193866310354 2.3683986092528064 -0.3605757026464122 L 2.351715124795673 -0.22039131925664726 Q 2.3480344114225664 -0.19318006516821845 2.3465897415559756 -0.16932292935989973 Q 2.3451450716893847 -0.14546579355158096 2.349187350181662 -0.1241371746419827 Q 2.3532296286739394 -0.10280855573238445 2.3642725110779685 -0.08270122502413824 Q 2.3753153934819977 -0.06259389431589207 2.3980202267752575 -0.04298546385536617 Q 2.4146704378569814 -0.02860594818431389 2.426573255424538 -0.020969002855619145 Q 2.4384760729920942 -0.013332057526924346 2.4543005766517556 -0.010236078856881548 L 2.478484307553071 -0.03823870658523537 Q 2.474046554322177 -0.04074995055221431 2.4699356082656245 -0.043639608407414376 Q 2.4658246622090725 -0.04652926626261433 2.4620405233268627 -0.04979733800603531 Q 2.446147140021581 -0.06352323932840342 2.437959581690614 -0.07852203556600257 Q 2.4297720233596474 -0.09352083180360166 2.426692999499328 -0.11137495211426335 Q 2.423613975639008 -0.12922907242492498 2.424559851298551 -0.15021371726911248 Q 2.4255057269580944 -0.17119836211329992 2.4286360394102746 -0.19624234630016058 Q 2.436719748069447 -0.2698606433078585 2.443169632938254 -0.31251798716772783 Q 2.4496195178070614 -0.35517533102759713 2.4524746297987785 -0.37913568026367367 Q 2.4553297417904956 -0.40309602949975026 2.454779234828896 -0.41546320145154386 Q 2.454228727867297 -0.42783037340333746 2.449068480642098 -0.4402147122461998 L 2.4447682746210995 -0.4505349946152517 L 2.447382732015836 -0.45356230572101974 Q 2.4856713083311046 -0.42445930031350426 2.523546924894669 -0.4155325052598554 Q 2.5614225414582332 -0.40660571020620656 2.5957203399544304 -0.4126605444990881 Q 2.6300181384506276 -0.41871537879196963 2.6581752681985997 -0.4360193102630505 Q 2.686332397946572 -0.45332324173413135 2.7059408284070976 -0.4760280750273912 Q 2.7235884158215713 -0.4964624249913251 2.7365573833268244 -0.527543864498653 Q 2.7495263508320775 -0.5586253040059808 2.748201637121622 -0.5961052337495827 Q 2.7468769234111665 -0.6335851634931846 2.7256683666983768 -0.6763455086994661 Q 2.7044598099855865 -0.7191058539057477 2.6537523489639727 -0.7628980152675888 L 2.48195244371164 -0.9112684724189013 M 2.522064740025757 -0.8184891445251917 L 2.5985043454463983 -0.752474095308088 Q 2.6272638009511944 -0.7276367500580885 2.643157290297149 -0.6993764068823585 Q 2.6590507796431035 -0.6711160637066287 2.6629555109254857 -0.6419784063949574 Q 2.6668602422078678 -0.6128407490832861 2.6579161742224775 -0.584889834109484 Q 2.6489721062370872 -0.5569389191356819 2.6280564470791927 -0.5327204302895381 Q 2.6104088596647195 -0.5122860803256042 2.584487773423263 -0.49833626713463347 Q 2.5585666871818065 -0.48438645394366264 2.5279669810311303 -0.48108373029608587 Q 2.497367274880454 -0.47778100664850914 2.4651334268173946 -0.48712065541318916 Q 2.432899578754335 -0.49646030417786924 2.4026264676966553 -0.5226048781252371 L 2.3246732067231295 -0.5899271560397094 L 2.522064740025757 -0.8184891445251917 M 3.07283102719982 -0.31044802839923874 L 2.7959841030185246 0.10324845523502672 L 2.5601226052100494 0.22405554878314013 L 2.601607305258647 0.3050494970871826 L 2.845479193558731 0.1801395211166804 L 3.33678312970683 0.20488709322758075 L 3.3121658351724976 0.1568247502779292 L 2.886182398528635 0.13457364457317503 L 2.8843588952297954 0.131013471021349 L 3.119786237144936 -0.21877355943971818 L 3.07283102719982 -0.31044802839923874" fill="#382d5e" fill-rule="nonzero"></path></g><g clip-path="url(#SvgjsClipPath1001)"><g clip-path="url(#ae45a08eb-b832-4466-b583-d2807c3688bab28010bb-a92f-43e2-9874-1d1912569e39)"><path d=" M 1.8682863440080852 1.0505873427033268 C 1.8682863440080852 1.502184835406972 1.502184835406972 1.8682863440080852 1.0505873427033268 1.8682863440080852 C 0.598989849999681 1.8682863440080852 0.23292071397869044 1.5021848354069722 0.23292071397869044 1.0505873427033268 C 0.23292071397869044 0.5989898499996813 0.5989898499996814 0.2328883413985682 1.0505873427033268 0.2328883413985682 C 1.5021848354069722 0.2328883413985682 1.8682863440080852 0.5989898499996813 1.8682863440080852 1.0505873427033268" fill="#e37f7c" transform="matrix(1,0,0,1,0,0)" fill-rule="nonzero"></path></g><g clip-path="url(#ae45a08eb-b832-4466-b583-d2807c3688bab28010bb-a92f-43e2-9874-1d1912569e39)"><path d=" M 0.835406802631561 0.7828661050933521 L 1.7086571514258861 0.5652899940925492 C 1.6956078357608475 0.5477170322458249 1.6818712078396711 0.5306650389380126 1.6674792295105423 0.5141736900797128 L 0.8277668737227395 0.7529862136406306 Z" fill="#382d5e" transform="matrix(1,0,0,1,0,0)" fill-rule="nonzero"></path></g><g clip-path="url(#ae45a08eb-b832-4466-b583-d2807c3688bab28010bb-a92f-43e2-9874-1d1912569e39)"><path d=" M 0.8396799832076814 0.8157890190775532 L 1.7908835049360838 0.7032295579929241 C 1.7822076534633544 0.6847448147431906 1.7727872326478162 0.6666485424549228 1.7627517328099571 0.6489407411281203 L 0.8353096848911945 0.784678969580191 Z" fill="#382d5e" transform="matrix(1,0,0,1,0,0)" fill-rule="nonzero"></path></g><g clip-path="url(#SvgjsClipPath1000b28010bb-a92f-43e2-9874-1d1912569e39)"><path d=" M 0.9247874963487484 1.3989163048173932 L 0.8865554792245186 1.3989163048173932 L 0.8865554792245186 0.7738341552392791 L 0.9247874963487484 0.7738341552392791 Z M 1.2598760731928655 1.0549900135999357 L 1.221644056068636 1.0549900135999357 L 1.221644056068636 0.7119054094656537 L 1.2598760731928655 0.7119054094656537 Z M 0.988852832410434 1.3850608405251237 L 0.9506208152862042 1.3850608405251237 L 0.9506208152862042 0.7600110635271315 L 0.988852832410434 0.7600110635271315 Z M 1.052950541052242 1.3675472746790538 L 1.014718523928012 1.3675472746790538 L 1.014718523928012 0.7424651251009398 L 1.052950541052242 0.7424651251009398 Z M 1.1170158771139276 1.3631122312023227 L 1.0787838599896977 1.3631122312023227 L 1.0787838599896977 0.7380300816242086 L 1.1170158771139276 0.7380300816242086 Z M 1.1884297888633353 1.0659319456812142 L 1.1501977717391056 1.0659319456812142 L 1.1501977717391056 0.7228473415469322 L 1.1884297888633353 0.7228473415469322 Z" fill="#382d5e" transform="matrix(1,0,0,1,0,0)" fill-rule="nonzero"></path></g><g clip-path="url(#be45a08eb-b832-4466-b583-d2807c3688bab28010bb-a92f-43e2-9874-1d1912569e39)"><path d=" M 1.240776250920812 1.7652444214793612 C 1.4651506037472612 1.6843777163342926 1.6072338579032683 1.5037063466727123 1.6573789845124403 1.234528342957242 L 0.4437957008942135 1.234528342957242 C 0.49497675006729325 1.5012136580033086 0.6312653123814401 1.6854783840584449 0.8603984344858417 1.7658595005016815 L 0.8606897877069408 1.8467909508069942 C 0.9229155073451535 1.8614858645730745 0.9866502143464314 1.868830675676529 1.050587342703326 1.868674814969551 C 1.116109444870508 1.868674814969551 1.1794302115893849 1.8613262392818286 1.240484897699713 1.8467909508069942 Z" fill="#382d5e" transform="matrix(1,0,0,1,0,0)" fill-rule="nonzero"></path></g><g clip-path="url(#be45a08eb-b832-4466-b583-d2807c3688bab28010bb-a92f-43e2-9874-1d1912569e39)"><path d=" M 1.0505873427033268 2.1011746854066535 C 0.47128002141789765 2.1011746854066535 0 1.629894663988756 0 1.0505873427033268 C 0 0.47128002141789777 0.4712800214178976 0 1.0505873427033268 0 C 1.629894663988756 0 2.1011746854066535 0.4712800214178976 2.1011746854066535 1.0505873427033268 C 2.1011746854066535 1.629894663988756 1.629894663988756 2.1011746854066535 1.0505873427033268 2.1011746854066535 M 1.0505873427033268 0.022887414146342867 C 0.4839053276655264 0.022887414146342867 0.022887414146342492 0.4839053276655265 0.022887414146342492 1.0505873427033268 C 0.022887414146342492 1.617269357741127 0.4839053276655264 2.078287271260311 1.0505873427033268 2.078287271260311 C 1.617269357741127 2.078287271260311 2.078287271260311 1.6172693577411272 2.078287271260311 1.050587342703327 C 2.078287271260311 0.4839053276655267 1.617269357741127 0.022887414146342867 1.0505873427033268 0.022887414146342867" fill="#382d5e" transform="matrix(1,0,0,1,0,0)" fill-rule="nonzero"></path></g><g clip-path="url(#be45a08eb-b832-4466-b583-d2807c3688bab28010bb-a92f-43e2-9874-1d1912569e39)"><path d=" M 1.912766269095885 1.0360196816483707 L 2.0379834090082647 1.0360196816483707 L 2.0373359574058223 1.0101863627109147 L 1.912183562653687 1.0139739545852033 Z M 1.9111152675096565 0.9935468565281425 L 2.0361057993611817 0.9860687905199316 L 2.033807346172511 0.9559622910063551 L 1.9091081675420847 0.9672279488888548 Z M 1.9062917530714598 0.9460562814889849 L 2.0306024607404205 0.9310354043123188 L 2.0267824962860095 0.901058395119231 L 1.9029897498990032 0.9198668641701857 Z M 1.8984575886819055 0.8943248984538289 L 2.02160288346647 0.8717612101087077 C 2.0197576463995084 0.8618552005913375 2.018268507713891 0.851916818493845 2.0158081916246093 0.8421402992969632 L 1.8934074661828542 0.8684268343561288 C 1.8956088016311587 0.8769408229282478 1.8968389596757993 0.8856814195612216 1.8984575886819055 0.8943248984538289 M 1.8875480291807496 0.8431438492807491 L 2.0091394401194513 0.8131344675075391 C 2.0070675949916352 0.803260830570291 2.0040245724601555 0.7936461742740198 2.0013376483100194 0.7839344002373823 L 1.8807497873551031 0.8176666287246367 C 1.8830806131238964 0.8261482447166333 1.885799909854155 0.8345327429682637 1.8875480291807496 0.8431438492807491 M 1.8736278197282359 0.7927073694504781 L 1.9931150129589994 0.7553170394094236 L 1.983435611502484 0.726699678581465 L 1.8651462037362387 0.7677481101763197 Z M 1.8563084893628987 0.7433715573443594 L 1.973302993924259 0.698729769355949 L 1.9621991989423702 0.6706303698099444 L 1.8466290879063831 0.7188331416117887 Z M 1.8361079993666927 0.6951040403822709 L 1.9501565991369394 0.6434050299272371 C 1.945883418560819 0.6342759623327978 1.9421605718467745 0.6249202866775037 1.9374018025688222 0.6160178271439193 L 1.8250042043848038 0.6711807036720205 C 1.829180267220558 0.6789177503212085 1.8323527800725263 0.6871403856722282 1.8361079993666927 0.695104040382271 M 1.8131558400601058 0.6480666814648233 L 1.9238376914976516 0.5895370566040209 C 1.9194026480209205 0.5804727341698259 1.9142554077815026 0.5718292552772185 1.9092376578625734 0.5630886586442447 L 1.8004010434919886 0.624985031837748 C 1.8047713418084756 0.6326249607465695 1.8093358756056952 0.6401677719150247 1.8131558400601058 0.6480666814648233 M 1.7874196388630166 0.6024860886528711 L 1.8943462710063959 0.5373524574471552 L 1.878062863204967 0.5119076094711649 L 1.7731757036092815 0.5803108712692153 Z M 1.7586727877145696 0.55875073290788 L 1.8614557296023164 0.48723970341810563 L 1.8439421637562468 0.4626365425252905 L 1.7433929298969264 0.537255339706789 Z M 1.7274656204768408 0.5167311239093616 L 1.8257487737276126 0.43913404935662764 C 1.8194361206037981 0.4312675123869514 1.8134795658613272 0.4231419947762979 1.8067460691959252 0.41566392876808694 L 1.7108908594543126 0.49620690811193424 C 1.7168150416166614 0.5027137967164814 1.7219622818560794 0.5098681369234711 1.7274656204768408 0.5167311239093616 M 1.6938628823100748 0.4765567519778043 L 1.787290148542528 0.39316498558320995 C 1.780848005098225 0.385427938934022 1.7736289197309913 0.3783707164673988 1.7667659327451006 0.3710221407796763 L 1.6759284729224175 0.4572303216448956 C 1.6819174002450108 0.46364009250907634 1.6882624259489474 0.46975851015215797 1.6938628823100748 0.4765567519778043 M 1.657896945794394 0.4385189703343073 L 1.746112226627185 0.34965623789907374 L 1.7242607350447505 0.32880829630042524 L 1.63879712352234 0.4203255803056729 Z M 1.6195354383496756 0.4028767596198475 L 1.7022150079815832 0.30886678694519615 L 1.679359966415363 0.2890871404905777 L 1.5995939289944465 0.3855898018346326 Z M 1.5791668309373856 0.3695330020940586 L 1.6560193361473106 0.2706671424010885 C 1.648120426597512 0.2644516070176405 1.6402538896278356 0.2581389538938261 1.6319341365364495 0.25247375237245423 L 1.5581246538580042 0.353605692673973 C 1.5654084843854825 0.3585586974326581 1.572271471371373 0.36406203605341947 1.5791668309373856 0.3695330020940586 M 1.5369529864581346 0.33855244291718484 L 1.6077194466051001 0.23521916716736144 C 1.5995615564143244 0.2293273575851347 1.5908533323614729 0.2242124899258389 1.5824364615297202 0.21867677872495556 L 1.5149072593949673 0.32411427218271704 C 1.5222234625025675 0.3289377866209138 1.529863391411389 0.3333404575175227 1.5369529864581346 0.33855244291718495 M 1.492893904911922 0.31029118047056975 L 1.5572505941947068 0.2028789596253585 L 1.5310611768759077 0.18782570986857036 L 1.470038863345702 0.29714791294098686 Z M 1.4471514491993596 0.2848787050747014 L 1.5048393869769863 0.17377601009556806 L 1.4779377728955005 0.16005003612378693 L 1.4236489560306966 0.2729008504295153 Z M 1.3999845999614229 0.2622178989892139 L 1.4508095507531595 0.14778082825750152 C 1.441648110578598 0.14357239284162535 1.4324866704040364 0.13942870258599324 1.4230338770083761 0.1359000913526816 L 1.3757699100300735 0.25185867335013384 C 1.3839925453810933 0.2549016958816137 1.39202094525138 0.25852742485529157 1.3999845999614229 0.2622178989892139 M 1.351619965258968 0.24230876221410697 L 1.3953553210039589 0.12499053185152564 C 1.385999645348665 0.12123531255735902 1.3763202438921494 0.11835415292648997 1.3668027053362448 0.11501977717391097 L 1.3267254511450537 0.23363291074137757 C 1.3350128316563177 0.236578815532491 1.3434620750681923 0.23903913162177254 1.351619965258968 0.24230876221410708 M 1.3020575450919945 0.22557213829096845 L 1.3385414428896294 0.10576121925898335 L 1.309470865939961 0.09750621132784147 L 1.2767098148563703 0.21835305292373455 Z M 1.251523947521357 0.2119756546396758 L 1.2806268970511476 0.09019000822024108 L 1.2511678491400136 0.08342413897471702 L 1.2258524914845117 0.2060514724773269 Z M 1.1920878904171355 2.027915536590285 C 1.202123390254994 2.0268472414462546 1.21196465461212 2.0247106511581943 1.2219030367096126 2.023059649571966 L 1.200310525768155 1.8997201193066693 C 1.1916346742954254 1.9011445128320428 1.1830235679829402 1.9030868676393704 1.1742829713499665 1.9039609273026676 Z M 1.2003105257681552 0.201422193519863 L 1.2219030367096126 0.07808266325456635 C 1.2119646546121206 0.07643166166833802 1.2021233902549944 0.07426269880015564 1.1920878904171355 0.07322677623624757 L 1.1742829713499667 0.19714901294374254 C 1.1830235679829404 0.19802307260704 1.1916346742954258 0.1999654274143674 1.2003105257681552 0.2014221935198631 M 1.1325223429924252 2.034519542935198 C 1.1425578428302838 2.0337749735923896 1.1526257152482648 2.033127521989947 1.1625964699258793 2.0316707558844516 L 1.148514397572755 1.9072629304751243 C 1.1398061735199034 1.908557833680009 1.1310332043068074 1.9090757949619634 1.1222602350937114 1.909755619144528 Z M 1.148514397572755 0.19387938235140809 L 1.1625964699258793 0.06947155694208114 C 1.1526257152482648 0.06801479083658545 1.1425578428302838 0.06736733923414305 1.1325223429924252 0.06659039731121208 L 1.1222602350937114 0.1913866936820045 C 1.1310332043068074 0.19206651786456924 1.1398061735199034 0.19255210656640115 1.148514397572755 0.19387938235140828 M 1.07273018750686 2.037627310626923 L 1.1028690596005584 2.036753250963625 L 1.0963297984158893 1.911730346531978 L 1.0699461456163573 1.9124425432946643 Z M 1.0963297984158893 0.18941196629455498 L 1.1028690596005584 0.06435668928278562 L 1.07273018750686 0.06348262961948824 L 1.0699461456163573 0.18866739695174617 Z M 1.0430121589547492 2.037983409008266 L 1.0439509637782907 1.9127986416760083 L 1.0175349383986367 1.9121188174934438 L 1.0128409142809287 2.037238839665457 Z M 1.0175349383986367 0.1890234953330895 L 1.0439509637782907 0.18834367115052478 L 1.0430121589547492 0.0631265312381449 L 1.0128409142809287 0.06390347316107586 Z M 0.9831552583089398 2.0356525832394725 L 0.9915721291406924 1.910726796548192 L 0.9652855940815268 1.9087520691607425 L 0.9530487587953635 2.033354130050802 Z M 0.9652855940815268 0.19239024366579044 L 0.9915721291406924 0.1904155162783409 L 0.9831552583089398 0.06545735700693778 L 0.9530487587953635 0.06778818277573084 Z M 0.9235249657239853 2.029793146237368 L 0.9394846477241929 1.9056119288888964 C 0.9307764236713415 1.9043493982641333 0.9220034544582454 1.903701946661691 0.913359975565638 1.9020185724953405 L 0.8936127016911417 2.0256494559817364 C 0.9035187112085121 2.0275594382089417 0.9135542110463708 2.028401125292117 0.9235249657239853 2.029793146237368 M 0.913359975565638 0.19912374033119262 C 0.9220034544582454 0.19740799358472003 0.9307764236713415 0.19676054198227752 0.9394846477241929 0.1955303839376368 L 0.9235249657239853 0.07131679400904269 C 0.9135542110463708 0.07274118753441623 0.9035187112085121 0.07358287461759147 0.8936127016911417 0.07549285684479692 Z M 0.8643155166806185 2.020437470582074 L 0.8877856372691593 1.8974216661179986 C 0.8791151901655113 1.8959853717841264 0.8705075797484308 1.8941925696144464 0.8619846909118254 1.8920478178177258 L 0.8347593510291184 2.014286680358871 C 0.8445682428061223 2.0166175061276634 0.8543771345831264 2.018818841575968 0.8643155166806185 2.020437470582074 M 0.8619846909118254 0.20906212242868516 C 0.8705310520640666 0.20702264988099126 0.8791097857964296 0.20504792249354162 0.8877856372691593 0.20368827412841234 L 0.8643155166806185 0.08070484224445905 C 0.8543771345831261 0.0822910986704431 0.8445682428061223 0.08452480669886975 0.8347593510291184 0.08685563246766281 Z M 0.8367017058364458 0.21488918685066766 L 0.8057535192396941 0.09355675655294259 C 0.7960093726229344 0.09611419038259063 0.7863623437465412 0.09899535001345967 0.7766505697099035 0.10171464674371823 L 0.8113216030206996 0.22201115447753514 Z M 0.7864594614869077 0.22948922048574613 L 0.7481626992024336 0.11026100789595934 L 0.719512965794353 0.11994040935247459 L 0.761467829632627 0.23793846389762074 Z M 0.7371883945410331 0.2470999040721822 L 0.6916725468893253 0.1304291253120433 C 0.6823492438141534 0.13418434460620973 0.6728964504184928 0.13771295583952137 0.663637892503565 0.14166241061442064 L 0.7127147239687066 0.25684405068894195 C 0.720807868999238 0.2534125571959966 0.7290305043502575 0.25036953466451695 0.7371883945410331 0.24709990407218232 M 0.6890503678994332 0.2675593747093654 L 0.6365096703612242 0.1538992459005841 C 0.6272747141004792 0.15791788331884737 0.6181932562135397 0.16228043859390517 0.6092843304785175 0.16697776826992242 L 0.6652888940897933 0.2789868954924757 C 0.6730583133191033 0.27481083265672146 0.6809895954490239 0.2710556133625549 0.6890503678994332 0.2675593747093654 M 0.6421748718825958 0.2908028872370513 L 0.5828035599386183 0.18057425192121518 C 0.5739011004050341 0.18530064861904538 0.5652899940925488 0.19051263401870752 0.5565170248794529 0.1954656387773927 L 0.6192550851561314 0.3038166644461456 C 0.6268950140649528 0.299511111289903 0.6344054526532861 0.2949142049125612 0.6421748718825958 0.2908028872370513 M 0.5969180048718649 0.31708942229621695 L 0.5309426865829739 0.2106483788546695 L 0.5055302111871058 0.2269641592362206 L 0.5747104149080873 0.33133335754995197 Z M 0.5533445120274844 0.34606288150551884 L 0.48105654061477904 0.2438302734798477 C 0.4728986504240034 0.24972208306207444 0.4645465247524953 0.25538728458344634 0.45655049746233034 0.26150570222652797 L 0.5319138639866378 0.3614722296436504 C 0.5389063412930168 0.35613075392349985 0.546222544400617 0.3512424943250589 0.5533445120274846 0.34606288150551884 M 0.5114867659295768 0.3775614019643466 L 0.433145122034034 0.279860955155773 C 0.4251722722316608 0.2860050420980198 0.4174195734571177 0.29242963230812163 0.40990160950634763 0.2991226403284376 L 0.49118915819300424 0.39436277104772943 C 0.4977607919577958 0.38853570662574693 0.5044619160430754 0.38283813252425286 0.5114867659295768 0.3775614019643466 M 0.47153900205887433 0.4113907481919674 L 0.3874350389015933 0.3186109335619568 L 0.3655188021589146 0.339361757420239 L 0.45240680720669846 0.4295517656404796 Z M 0.433922063956965 0.4478099008293582 L 0.3443795073391669 0.36027444417913185 L 0.3235639383206405 0.3821259357615663 L 0.41569630134820845 0.466909723101412 Z M 0.39850646130336015 0.4863980163349313 L 0.30384903702626614 0.4043982708855883 C 0.29737452100184114 0.4121029449546541 0.2904791614358286 0.41945152064237656 0.2843283712126248 0.4274475479325414 L 0.38144611157900005 0.506501388590771 C 0.3867552147190286 0.49950891128439195 0.3928412597819881 0.4931315130003333 0.39850646130336015 0.4863980163349313 M 0.36538931183842605 0.526928486647832 L 0.26597311828337966 0.45082055078071576 C 0.25959571999932113 0.458622342590148 0.25386577331770493 0.466909723101412 0.24803870889572238 0.47509998587230967 L 0.34972098305931737 0.548164899207946 C 0.35483585071861307 0.5410105590009564 0.3597888554772983 0.5337267284734782 0.36538931183842605 0.526928486647832 M 0.33470010588265126 0.5693689391879381 L 0.2308488688508739 0.4993794209639035 L 0.214533088469323 0.5248242689398939 L 0.3204561706289163 0.5915765291517158 Z M 0.306924432137868 0.6137517465353715 L 0.19905899517094697 0.55020437175564 L 0.1840057454141587 0.5763937890744392 L 0.2937811646082851 0.6366067881015919 Z M 0.2818033099630989 0.6596236925684228 L 0.17024739886225565 0.6027774418739711 C 0.16577998280540274 0.611809391728044 0.16079460546659521 0.62058236094114 0.15684515069169574 0.6298409188560677 L 0.2700844359588895 0.6832556760575742 C 0.2735159294518349 0.6751625310270428 0.27791860034844373 0.6675226021182213 0.2818033099630989 0.6596236925684228 M 0.2594014845185883 0.7069200321268477 L 0.14457594282541072 0.6569691409984086 C 0.14027038966916774 0.6660658360127257 0.13677415101597823 0.6755510019885085 0.13305130430193413 0.6848743050636804 L 0.2493336121006074 0.7312965849588078 C 0.25260324269294193 0.7231386947680324 0.2555815200641774 0.7148513142567684 0.2594014845185883 0.7069200321268477 M 0.23988081870494674 0.7554465297299131 L 0.12220648996102207 0.7126176062283417 L 0.11252708850450664 0.7412349670563003 L 0.2314315752930724 0.7804381615841939 Z M 0.22366215606376205 0.8052031853776196 L 0.10362462897092219 0.769625719823404 L 0.09536962103978013 0.7986962967730724 L 0.21644307069652846 0.8305509156132435 Z M 0.2103893982136911 0.8558015281085012 L 0.08840951631352362 0.8276373834022522 C 0.08624055344534107 0.8374786477593783 0.08361837445544892 0.8471904217960158 0.08190262770897631 0.8571288038935083 L 0.20469182411219689 0.8815377293055906 C 0.20618096279781453 0.8728618778328611 0.2085441611467299 0.8643802618408643 0.2103893982136911 0.8558015281085012 M 0.20015966289509932 0.9070796950219474 L 0.07665826972919206 0.8864259889040315 C 0.07471591492186447 0.8962996258412795 0.0732915213964911 0.9062703805188941 0.07215848109221662 0.9162735077766309 L 0.19621020812020024 0.9331719946003801 C 0.19721375810398578 0.9244313979674064 0.19841154356850454 0.9157231739145547 0.20015966289509932 0.9070796950219474 M 0.1929405775278653 0.9589405683775919 L 0.06840326179805 0.9457973008480088 C 0.06727022149377589 0.9558004281057457 0.06675226021182167 0.9658683005237266 0.06591057312864643 0.9758714277814632 L 0.19077161465968312 0.9852271034367575 C 0.19151618400249196 0.9764865068037835 0.19190465496395726 0.9676811650105656 0.1929405775278653 0.9589405683775919 M 0.18905586791321052 1.0111575401145796 L 0.0639682183213192 1.005557083753452 L 0.06319127639838824 1.0356959558471506 L 0.18837604373064598 1.0375735654942335 Z M 0.18837604373064598 1.0635687473323001 L 0.06319127639838824 1.0654139843992614 L 0.0639682183213192 1.0955852290730819 L 0.18905586791321052 1.0899524001318321 Z M 0.19077161465968312 1.1158828368096543 L 0.06591057312864643 1.1252385124649484 C 0.06675226021182203 1.1352740123028073 0.06727022149377589 1.1453418847207884 0.06840326179805 1.155345011978525 L 0.1929405775278653 1.142201744448942 C 0.19190465496395762 1.1334611478159684 0.19151618400249196 1.1246558060227503 0.19077161465968312 1.1158828368096543 M 0.19621020812020024 1.1679703182261536 L 0.07215848109221662 1.1848364324697809 C 0.07329152139649073 1.1948395597275177 0.07471591492186447 1.204810314405132 0.07665826972919206 1.2147163239225023 L 0.20015966289509932 1.1940302452244644 C 0.19847027160068834 1.1854042252851804 0.19715256965540248 1.1767095526134173 0.19621020812020024 1.1679703182261543 M 0.20469182411219689 1.2196045835209433 L 0.08190262770897631 1.2440135089330255 C 0.08361837445544892 1.2539195184503957 0.08624055344534107 1.2636636650671556 0.08840951631352362 1.2735049294242815 L 0.2103893982136911 1.2453407847180327 C 0.2085441611467299 1.2367620509856696 0.20618096279781453 1.2282480624135508 0.20469182411219689 1.2196045835209433 M 0.21644307069652846 1.2705913972132903 L 0.09536962103978013 1.3024460160534612 L 0.10362462897092219 1.3315165930031296 L 0.22366215606376205 1.2959391274489143 Z M 0.2314315752930724 1.32070415124234 L 0.11252708850450664 1.3599073457702335 L 0.12220648996102207 1.388524706598192 L 0.23988081870494674 1.3456634105164984 Z M 0.2493336121006074 1.3698457278677258 L 0.13305130430193413 1.4162356351827312 C 0.13677415101597823 1.4255913108380254 0.14027038966916774 1.435044104233686 0.14457594282541072 1.4441731718281252 L 0.2594014845185883 1.3942222806996862 C 0.2555815200641774 1.3862909985697656 0.25260324269294193 1.3780036180585014 0.2493336121006074 1.3698457278677258 M 0.2700844359588895 1.4178542641888376 L 0.15684515069169574 1.471269021390344 C 0.16079460546659521 1.480559951885394 0.16577998280540274 1.4893329210984896 0.17024739886225565 1.4983324983724406 L 0.2818033099630989 1.4414862476779888 C 0.2779186003484439 1.4336197107083124 0.2735159294518349 1.4259797817994908 0.2700844359588895 1.4178542641888376 M 0.2937811646082851 1.4645355247249419 L 0.1840057454141587 1.5247161511719725 L 0.19905899517094697 1.5509379410708939 L 0.306924432137868 1.4873905662911622 Z M 0.3204561706289161 1.509565783674818 L 0.21453308846932262 1.57631804388664 L 0.2308488688508739 1.6017305192825082 L 0.3347001058826511 1.531773373638596 Z M 0.34972098305931737 1.5529774136185879 L 0.24803870889572238 1.626009954374102 C 0.25386577331770493 1.6342002171449996 0.25959571999932113 1.6424875976562638 0.26597311828337966 1.650289389465696 L 0.36538931183842605 1.5741814535985799 C 0.3597888554772983 1.5673832117729336 0.35483585071861307 1.5601317538255774 0.34972098305931737 1.5529774136185879 M 0.3814461115789998 1.5946085516556407 L 0.2843283712126244 1.6736947648939924 C 0.2904791614358282 1.6816907921841573 0.2973745210018408 1.6890069952917577 0.303849037026266 1.6967116693608233 L 0.39850646130335976 1.6147442964916026 C 0.3928412597819881 1.6080107998262005 0.3867552147190284 1.6016334015421416 0.3814461115789998 1.5946085516556407 M 0.41569630134820823 1.6342002171449996 L 0.32356393832064034 1.7189840044848452 L 0.34437950733916667 1.74083549606728 L 0.4339220639569648 1.6533000394170536 Z M 0.45240680720669807 1.6715581746059323 L 0.3655188021589144 1.7617481828261727 L 0.38743503890159314 1.782531379264577 L 0.4715390020588741 1.6897515646345664 Z M 0.491189158193004 1.706747169198682 L 0.4099016095063478 1.8020196724980964 C 0.4174444206748028 1.8086884240032544 0.4251490947438685 1.8151629400276792 0.43314512203403344 1.8212489850906386 L 0.5114867659295763 1.7235809108621873 C 0.5044619160430752 1.7182718077221588 0.49776079195779527 1.7126066062007868 0.49118915819300385 1.7067471691986822 M 0.5319138639866372 1.7396377106027612 L 0.45655049746233 1.8396366106000057 C 0.46454652475249475 1.8457550282430872 0.4728986504240032 1.8513878571843372 0.48105654061477865 1.8572796667665639 L 0.5533445120274838 1.755047058740893 C 0.5462225444006165 1.7498998185014747 0.5389063412930161 1.7449791863229118 0.5319138639866371 1.7396377106027612 M 0.5747104149080866 1.7698089552765819 L 0.5055302111871052 1.8741781535903133 L 0.5309426865829733 1.8904615613917422 L 0.5969180048718641 1.7840528905303168 Z M 0.6192550851561306 1.797293275800266 L 0.5565170248794521 1.905676674049141 C 0.5652899940925481 1.910629678807826 0.5739011004050333 1.9158416642074882 0.5828035599386178 1.9205680609053186 L 0.6421748718825953 1.8103394255894822 C 0.6344054526532851 1.8061957353338505 0.6268950140649521 1.8016312015366311 0.6192550851561306 1.797293275800266 M 0.6652888940897925 1.8221554173340582 L 0.6092843304785162 1.9341321719764892 C 0.6181867900121004 1.9388585686743192 0.6272834850264177 1.9431964944106843 0.6365096703612234 1.9472106943458274 L 0.6890503678994324 1.8335829381171684 C 0.6809793024916708 1.8300951212654504 0.6730523548832568 1.8262828426472346 0.6652888940897933 1.8221554173340586 M 0.7127147239687058 1.8442658895574697 L 0.6636378925035642 1.9594799022121132 C 0.6728964504184922 1.9633969844068901 0.6823492438141526 1.9669579682203238 0.6916725468893248 1.9706808149343684 L 0.7371883945410326 1.8540424087543514 C 0.729030504350257 1.850772778162017 0.7208078689992372 1.8476973830504149 0.7127147239687058 1.8442658895574697 M 0.7614678296326264 1.863203848928913 L 0.7195129657943522 1.9811695308939368 L 0.7481626992024328 1.9908489323504523 L 0.7864594614869069 1.8716530923407877 Z M 0.811321603020699 1.8790987857688761 L 0.7766505697099031 1.9994276660828154 C 0.7863623437465405 2.002146962813074 0.7960093726229339 2.005028122443943 0.8057535192396936 2.007553183693469 L 0.8367017058364454 1.8862207533957438 Z M 1.2515239475213564 1.8891342856067348 L 1.2258524914845113 1.8950908403492062 L 1.251167849140013 2.017718173851816 L 1.280626897051147 2.01091993202617 Z M 1.2767098148563698 1.8827568873226763 L 1.3094708659399605 2.0036037289185695 L 1.3385414428896287 1.9953487209874277 L 1.3020575450919938 1.8755701745355648 Z M 1.3267254511450532 1.8674770295050331 L 1.366802705336244 1.9860901630725 C 1.3763202438921487 1.9827557873199209 1.385999645348664 1.9798746276890518 1.3953553210039584 1.9761517809750075 L 1.351619965258967 1.8588011780323037 C 1.3434620750681918 1.8621031812047608 1.335012831656317 1.8645634972940421 1.3267254511450532 1.8674770295050336 M 1.3757699100300727 1.849283639476399 L 1.4230338770083752 1.9652422214738512 C 1.432486670404036 1.9616812376604178 1.4416481105785974 1.9575375474047856 1.4508095507531586 1.9533614845690315 L 1.3999845999614224 1.838924413837319 C 1.3920472031657019 1.84268304141764 1.3839698091395538 1.8461386110544948 1.3757699100300724 1.8492836394763994 M 1.4236489560306957 1.828241462397018 L 1.4779377728954997 1.941092276702746 L 1.5048393869769856 1.9273663027309649 L 1.4471514491993585 1.8162312351717094 Z M 1.470038863345701 1.803962027305424 L 1.5310611768759068 1.9133166029579625 L 1.5572505941947061 1.8982309806210524 L 1.4928939049119214 1.7908187597758412 Z M 1.5149072593949664 1.777028040643816 L 1.5824364615297195 1.8824655341015772 C 1.590853332361472 1.876929822900694 1.5995615564143237 1.8718149552413983 1.6077194466050992 1.8658907730790495 L 1.5369529864581335 1.762589869909348 C 1.5298633914113884 1.767769482728888 1.5222234625025668 1.772172153625497 1.5149072593949664 1.777028040643816 M 1.5581246538580034 1.7475366201525597 L 1.6319341365364488 1.8486685604540787 C 1.640253889627835 1.842970986352585 1.6481204265975113 1.8366907058088926 1.65601933614731 1.8304427978453224 L 1.5791668309373847 1.7316093107324741 C 1.5722714713713721 1.7370479041929912 1.5654084843854816 1.7425836153938747 1.5581246538580034 1.7475366201525597 M 1.5995939289944459 1.7155201384117782 L 1.679359966415362 1.8120227997558331 L 1.7022150079815825 1.792275525881337 L 1.6195354383496747 1.6982331806265636 Z M 1.6387971235223393 1.68081673252086 L 1.7242607350447496 1.7723340165261077 L 1.7461122266271842 1.7514860749274592 L 1.657896945794393 1.6626233424922259 Z M 1.6759284729224169 1.6439119911816373 L 1.7667659327450997 1.7300877994667343 C 1.7736289197309902 1.7227392237790118 1.7808480050982243 1.7156820013123888 1.7872901485425272 1.7079449546632006 L 1.693862882310074 1.6245531882686066 C 1.6882624259489465 1.6313514300942529 1.68191740024501 1.6374698477373346 1.6759284729224169 1.6439119911816371 M 1.710890859454312 1.6049030321344766 L 1.8067460691959245 1.685478384058446 C 1.8134795658613265 1.678000318050235 1.8194361206037974 1.6698424278594597 1.825748773727612 1.6620082634699054 L 1.72746562047684 1.5844111889171713 C 1.7219622818560787 1.5912418033229396 1.7168150416166608 1.5983961435299292 1.710890859454312 1.6049030321344766 M 1.7433929298969255 1.563886973119744 L 1.843942163756246 1.6385057703012424 L 1.8614557296023158 1.6139026094084272 L 1.7586727877145685 1.542391579918653 Z M 1.7731757036092808 1.5208314415573176 L 1.8780628632049658 1.5892347033553682 L 1.894346271006395 1.5637898553793779 L 1.787419638863016 1.4986238515935397 Z M 1.800401043491988 1.4761249084086627 L 1.9092376578625725 1.5380212816021661 C 1.914255407781502 1.5292806849691922 1.9194026480209196 1.520637206076585 1.923837691497651 1.5115728836423898 L 1.813155840060105 1.4530432587815876 C 1.8093358756056945 1.4609745409115082 1.8047713418084748 1.4685173520799633 1.800401043491988 1.4761249084086627 M 1.825004204384803 1.42992923657439 L 1.9374018025688216 1.4850921131024915 C 1.9421605718467736 1.4762220261490293 1.9458834185608183 1.4668339779136128 1.9501565991369385 1.4577049103191737 L 1.8361079993666918 1.406038272444262 C 1.8323527800725257 1.4139695545741826 1.829180267220557 1.4221921899252024 1.825004204384803 1.42992923657439 M 1.8466290879063825 1.3823091712147442 L 1.9621991989423695 1.4305119430165885 L 1.9733029939242581 1.402380170890462 L 1.8563084893628978 1.3577707554821734 Z M 1.865146203736238 1.333361830070091 L 1.9834356115024832 1.3744426342450677 L 1.9931150129589987 1.345792900836987 L 1.8736278197282352 1.3084025707959326 Z M 1.8807497873551022 1.283443311521774 L 2.0013376483100185 1.3172079125891505 C 2.004024572460155 1.307496138552513 2.0070675949916343 1.297881482256242 2.009139440119451 1.2880078453189938 L 1.887548029180749 1.2579984635457837 C 1.885799909854154 1.266609569858269 1.8830806131238955 1.2749940681098995 1.8807497873551022 1.283443311521774 M 1.8934074661828535 1.2326831058902818 L 2.015808191624609 1.2590020135295696 C 2.01826850771389 1.2492254943326877 2.019757646399508 1.2392547396550733 2.021602883466469 1.2293487301377028 L 1.8984575886819048 1.206817414372704 C 1.8968389596757986 1.2154608932653113 1.895608801631158 1.2241691173181628 1.8934074661828535 1.2326831058902818 M 1.9029897498990025 1.181243076076225 L 2.026782496286009 1.2000515451271796 L 2.0306024607404196 1.1700745359340918 L 1.9062917530714591 1.1550860313375477 Z M 1.909108167542084 1.1292527124000922 L 2.03380734617251 1.1405183702825916 L 2.036105799361181 1.1104118707690152 L 1.9111152675096559 1.1029338047608042 Z M 1.912151190073564 1.083445511527285 L 2.0373035848256995 1.0872331034015736 L 2.038015781588386 1.0582920167723937 L 1.9127986416760072 1.0582920167723937 Z" fill="#382d5e" transform="matrix(1,0,0,1,0,0)" fill-rule="nonzero"></path></g></g></g><defs><clipPath id="SvgjsClipPath1001"><path d=" M 0 0 h 2.1011746854066535 v 2.1011746854066535 h -2.1011746854066535 Z"></path></clipPath><clipPath id="ae45a08eb-b832-4466-b583-d2807c3688bab28010bb-a92f-43e2-9874-1d1912569e39"><path d=" M 0 2.1011746854066535 L 2.1011746854066535 2.1011746854066535 L 2.1011746854066535 0 L 0 0 Z"></path></clipPath><clipPath id="SvgjsClipPath1000b28010bb-a92f-43e2-9874-1d1912569e39"><path d=" M 0 0 L 2.1011746854066535 0 L 2.1011746854066535 2.1011746854066535 L 0 2.1011746854066535 Z"></path></clipPath><clipPath id="be45a08eb-b832-4466-b583-d2807c3688bab28010bb-a92f-43e2-9874-1d1912569e39"><path d=" M 0 2.1011746854066535 L 2.1011746854066535 2.1011746854066535 L 2.1011746854066535 0 L 0 0 Z"></path></clipPath></defs></svg>